<svg width="96" height="96" viewBox="24 24 48 48" fill="none" xmlns="http://www.w3.org/2000/svg">
<g clip-path="url(#clip0_3989_14887)">
<g clip-path="url(#clip1_3989_14887)">
<path d="M26 61C26 56.0294 30.0294 52 35 52C39.9706 52 44 56.0294 44 61C44 65.9706 39.9706 70 35 70C30.0294 70 26 65.9706 26 61Z" fill="url(#paint0_radial_3989_14887)"/>
<path d="M53 70C48.0294 70 44 65.9706 44 61L44 52L57 52C61.9705 52 66 56.0294 66 61L66 67C66 68.6569 64.6568 70 63 70L53 70Z" fill="url(#paint1_radial_3989_14887)"/>
<path d="M29 30C27.3431 30 26 31.3431 26 33L26 43C26 47.9706 30.0294 52 35 52C39.9706 52 44 56.0294 44 61L44 39C44 34.0294 39.9706 30 35 30L29 30Z" fill="url(#paint2_linear_3989_14887)"/>
<path d="M29 30C27.3431 30 26 31.3431 26 33L26 43C26 47.9706 30.0294 52 35 52C39.9706 52 44 56.0294 44 61L44 39C44 34.0294 39.9706 30 35 30L29 30Z" fill="url(#paint3_linear_3989_14887)"/>
<path d="M72 27C72 25.3431 70.6569 24 69 24H60C51.1634 24 44 31.1634 44 40L44 61C44 56.0294 48.0294 52 53 52H56C64.8366 52 72 44.8366 72 36V27Z" fill="url(#paint4_linear_3989_14887)"/>
<path d="M72 27C72 25.3431 70.6569 24 69 24H60C51.1634 24 44 31.1634 44 40L44 61C44 56.0294 48.0294 52 53 52H56C64.8366 52 72 44.8366 72 36V27Z" fill="url(#paint5_radial_3989_14887)"/>
</g>
</g>
<defs>
<radialGradient id="paint0_radial_3989_14887" cx="0" cy="0" r="1" gradientUnits="userSpaceOnUse" gradientTransform="translate(31.625 58.525) rotate(55.5392) scale(13.9173)">
<stop stop-color="#3BD5FF"/>
<stop offset="0.282416" stop-color="#0FAFFF"/>
<stop offset="0.724174" stop-color="#0664BD"/>
<stop offset="1" stop-color="#003580"/>
</radialGradient>
<radialGradient id="paint1_radial_3989_14887" cx="0" cy="0" r="1" gradientUnits="userSpaceOnUse" gradientTransform="translate(65.5 67.5) rotate(-143.616) scale(23.6008 25.0614)">
<stop offset="0.101218" stop-color="#1EC8B0"/>
<stop offset="0.735011" stop-color="#0C74A1"/>
<stop offset="1" stop-color="#004695"/>
</radialGradient>
<linearGradient id="paint2_linear_3989_14887" x1="26" y1="41.75" x2="44.4837" y2="41.2004" gradientUnits="userSpaceOnUse">
<stop stop-color="#2BDABE"/>
<stop offset="0.518073" stop-color="#16BBDA"/>
<stop offset="0.75" stop-color="#119FC5"/>
<stop offset="1" stop-color="#0078D4"/>
</linearGradient>
<linearGradient id="paint3_linear_3989_14887" x1="34.5" y1="42" x2="29.25" y2="27.5" gradientUnits="userSpaceOnUse">
<stop stop-color="#16BBDA" stop-opacity="0"/>
<stop offset="1" stop-color="#76EB95"/>
</linearGradient>
<linearGradient id="paint4_linear_3989_14887" x1="72" y1="49.25" x2="43.25" y2="49.25" gradientUnits="userSpaceOnUse">
<stop stop-color="#73EDD8"/>
<stop offset="0.552496" stop-color="#2BDABE"/>
<stop offset="0.856326" stop-color="#16BBDA"/>
<stop offset="1" stop-color="#119FC5"/>
</linearGradient>
<radialGradient id="paint5_radial_3989_14887" cx="0" cy="0" r="1" gradientUnits="userSpaceOnUse" gradientTransform="translate(50.5 49.25) rotate(-90) scale(29 27.9479)">
<stop offset="0.508531" stop-color="#2BDABE" stop-opacity="0"/>
<stop offset="1" stop-color="#98F0B0"/>
</radialGradient>
<clipPath id="clip0_3989_14887">
<rect width="48" height="48" fill="white" transform="translate(24 24)"/>
</clipPath>
<clipPath id="clip1_3989_14887">
<rect width="48" height="48" fill="white" transform="translate(24 24)"/>
</clipPath>
</defs>
</svg>
